<svg width="16" height="16" viewBox="0 0 16 16" fill="none" xmlns="http://www.w3.org/2000/svg">
<path d="M13.9 10.425C14.9 9.325 15.5 8.2 15.5 7.55C15.5 6.075 12.15 1.75 8 1.75C3.85 1.75 0.5 6.075 0.5 7.55C0.5 9.025 3.85 13.35 8 13.35C9.15 13.35 10.25 13.025 11.225 12.5L13.9 14.25V10.425Z" fill="#27A17C"/>
<path d="M8 11.3C10.0711 11.3 11.75 9.62106 11.75 7.54999C11.75 5.47892 10.0711 3.79999 8 3.79999C5.92893 3.79999 4.25 5.47892 4.25 7.54999C4.25 9.62106 5.92893 11.3 8 11.3Z" fill="white"/>
<path d="M8 5.29999C7.75 5.29999 7.525 5.34999 7.3 5.39999C7.575 5.62499 7.75 5.97499 7.75 6.34999C7.75 7.04999 7.2 7.59999 6.5 7.59999C6.225 7.59999 5.975 7.49999 5.75 7.34999V7.52499C5.75 8.77499 6.75 9.77499 8 9.77499C9.25 9.77499 10.25 8.77499 10.25 7.52499C10.25 6.27499 9.25 5.29999 8 5.29999Z" fill="#27A17C"/>
</svg>
