<svg width="16" height="21" viewBox="0 0 16 21" fill="none" xmlns="http://www.w3.org/2000/svg">
<g clip-path="url(#clip0_458_42346)">
<path d="M6.33231 1.22637L6.99192 0.352734C7.15683 0.13125 7.42067 0 7.69689 0C8.17923 0 8.575 0.39375 8.575 0.873633V1.78418C8.575 2.32148 8.79762 2.83828 9.18927 3.20742L12.6811 6.52148C14.6929 8.43281 15.8308 11.0824 15.8308 13.851C15.8308 17.8008 12.6151 21 8.64508 21H7.91538C3.54543 21 0 17.4727 0 13.125V12.9691C0 10.9676 0.799784 9.04805 2.22208 7.63301L2.36637 7.48945C2.53952 7.31719 2.77863 7.21875 3.02599 7.21875C3.54131 7.21875 3.95769 7.63301 3.95769 8.1457V11.8125C3.95769 13.2604 5.14088 14.4375 6.59615 14.4375C8.05143 14.4375 9.23462 13.2604 9.23462 11.8125V11.6525C9.23462 10.9143 8.93779 10.2047 8.41422 9.68379L6.8229 8.10059C5.83347 7.11621 5.27692 5.775 5.27692 4.38047C5.27692 3.24434 5.64796 2.13281 6.33231 1.22637Z" fill="#ED6B23"/>
</g>
<defs>
<clipPath id="clip0_458_42346">
<rect width="15.8308" height="21" fill="white"/>
</clipPath>
</defs>
</svg>
