<svg width="19" height="18" viewBox="0 0 19 18" fill="none" xmlns="http://www.w3.org/2000/svg">
<path d="M2.74481 16.5V3.75C2.74481 2.25 3.74981 1.5 4.99481 1.5H10.9948C12.2398 1.5 13.2448 2.25 13.2448 3.75V16.5H2.74481Z" stroke="#3C3A3A" stroke-width="1.5" stroke-linecap="round" stroke-linejoin="round"/>
<path d="M1.61981 16.5H14.3698" stroke="#3C3A3A" stroke-width="1.5" stroke-linecap="round" stroke-linejoin="round"/>
<path d="M6.41231 7.49999H9.58481C10.3648 7.49999 11.0023 7.12499 11.0023 6.08249V5.15999C11.0023 4.11749 10.3648 3.74249 9.58481 3.74249H6.41231C5.63231 3.74249 4.99481 4.11749 4.99481 5.15999V6.08249C4.99481 7.12499 5.63231 7.49999 6.41231 7.49999Z" stroke="#3C3A3A" stroke-width="1.5" stroke-linecap="round" stroke-linejoin="round"/>
<path d="M4.99481 9.75H7.24481" stroke="#3C3A3A" stroke-width="1.5" stroke-linecap="round" stroke-linejoin="round"/>
<path d="M13.2448 12.0075L16.6198 12V7.5L15.1198 6.75" stroke="#3C3A3A" stroke-width="1.5" stroke-linecap="round" stroke-linejoin="round"/>
</svg>
