<svg width="25" height="24" viewBox="0 0 25 24" fill="none" xmlns="http://www.w3.org/2000/svg">
<g clip-path="url(#clip0_600_541)">
<path d="M5.95456 23.8819V11.5822L3.07878 8.09248L0.5 6.15594V21.7113C0.5 22.9123 1.23359 23.8819 2.13641 23.8819H5.95456Z" fill="#EEEEEE"/>
<path d="M19.0454 23.8819H22.8636C23.7691 23.8819 24.5 22.9087 24.5 21.7113V6.15607L21.5791 8.37414L19.0454 11.5822V23.8819Z" fill="#787A91"/>
<path d="M5.95458 11.5821L5.56326 6.7763L5.95458 2.17664L12.5 8.68822L19.0454 2.17664L19.4832 6.52797L19.0454 11.5821L12.5 18.0937L5.95458 11.5821Z" fill="#787A91"/>
<path d="M19.0454 2.17681V11.5823L24.5 6.15608V3.26203C24.5 0.577886 22.19 -0.95227 20.5728 0.657471L19.0454 2.17681Z" fill="#EEEEEE"/>
<path d="M0.5 6.15583L3.00866 8.65158L5.95456 11.5821V2.17656L4.42719 0.657223C2.80719 -0.952642 0.5 0.577637 0.5 3.26166V6.15571V6.15583Z" fill="#787A91"/>
</g>
<defs>
<clipPath id="clip0_600_541">
<rect width="24" height="24" fill="white" transform="translate(0.5)"/>
</clipPath>
</defs>
</svg>
