<svg width="16" height="16" viewBox="0 0 16 16" fill="none" xmlns="http://www.w3.org/2000/svg">
<path d="M5.66669 14.6667C7.19335 14.2333 8.80669 14.2333 10.3334 14.6667" stroke="#0C230C" stroke-linecap="round" stroke-linejoin="round"/>
<path d="M5.53357 12.0266V11.2533C4.00023 10.3266 2.74023 8.51995 2.74023 6.59995C2.74023 3.29995 5.77357 0.713288 9.20023 1.45995C10.7069 1.79329 12.0269 2.79329 12.7136 4.17329C14.1069 6.97329 12.6402 9.94662 10.4869 11.2466V12.02C10.4869 12.2133 10.5602 12.66 9.8469 12.66H6.17357C5.44023 12.6666 5.53357 12.38 5.53357 12.0266Z" fill="#27A17C" stroke="#0C230C" stroke-linecap="round" stroke-linejoin="round"/>
<path d="M8.00004 5.25992L7.28671 6.49992C7.12671 6.77325 7.26004 6.99992 7.57337 6.99992H8.42004C8.74004 6.99992 8.86671 7.22658 8.70671 7.49992L8.00004 8.73992" fill="#6FFF57"/>
<path d="M8.00004 5.25992L7.28671 6.49992C7.12671 6.77325 7.26004 6.99992 7.57337 6.99992H8.42004C8.74004 6.99992 8.86671 7.22658 8.70671 7.49992L8.00004 8.73992" stroke="#FFE600" stroke-linecap="round" stroke-linejoin="round"/>
</svg>
