<svg width="24" height="24" viewBox="0 0 24 24" fill="none" xmlns="http://www.w3.org/2000/svg">
<path d="M7.1999 7.2V5.4C7.1999 4.9872 7.2779 4.5996 7.4339 4.2372C7.5899 3.8688 7.8059 3.5496 8.0807 3.2808C8.3495 3.006 8.6687 2.79 9.0371 2.634C9.3995 2.478 9.7871 2.4 10.1999 2.4C10.5371 2.4 10.8587 2.4528 11.1659 2.5596C11.4731 2.6664 11.7539 2.8164 12.0095 3.0096C12.5225 2.6141 13.1521 2.39973 13.7999 2.4C14.3912 2.39736 14.9699 2.57064 15.4624 2.89778C15.9549 3.22493 16.3391 3.69116 16.5659 4.2372C16.7219 4.5996 16.7999 4.9872 16.7999 5.4V7.2H17.9999C18.3182 7.2 18.6234 7.32643 18.8484 7.55147C19.0735 7.77652 19.1999 8.08174 19.1999 8.4V11.5092C18.657 11.0513 17.9697 10.8 17.2595 10.8H14.3999V7.2H15.5999V5.4C15.5999 5.1504 15.5531 4.9152 15.4595 4.6968C15.3237 4.36941 15.0931 4.09008 14.7974 3.89465C14.5017 3.69922 14.1543 3.59662 13.7999 3.6C13.4315 3.6 13.1003 3.7032 12.8063 3.9096C13.0649 4.3637 13.2006 4.87742 13.1999 5.4V10.8624C12.5215 11.0036 11.9125 11.3743 11.4754 11.9119C11.0382 12.4496 10.7997 13.1215 10.7999 13.8144V17.2692C10.7999 18.0576 11.1095 18.816 11.6615 19.3788L13.8359 21.6H8.3999C7.44755 21.5998 6.53408 21.2222 5.8595 20.55C5.53023 20.2215 5.26636 19.8334 5.0819 19.4064C4.89232 18.9619 4.79633 18.4832 4.7999 18V8.4C4.7999 8.08174 4.92633 7.77652 5.15137 7.55147C5.37642 7.32643 5.68164 7.2 5.9999 7.2H7.1999ZM11.9999 7.2V5.4C11.9999 5.1504 11.9531 4.9152 11.8595 4.6968C11.7237 4.36941 11.4931 4.09008 11.1974 3.89465C10.9017 3.69922 10.5543 3.59662 10.1999 3.6C9.9503 3.6 9.7151 3.6468 9.4967 3.7404C9.16931 3.87623 8.88998 4.1068 8.69455 4.4025C8.49913 4.69821 8.39652 5.04557 8.3999 5.4V7.2H11.9999ZM12.5183 18.54C12.1856 18.2002 11.9995 17.7435 11.9999 17.268V13.8144C11.9996 13.5762 12.0462 13.3404 12.1371 13.1202C12.2281 12.9001 12.3615 12.7001 12.5298 12.5316C12.6981 12.3631 12.8979 12.2294 13.1179 12.1382C13.3379 12.0469 13.5737 12 13.8119 12H17.2595C17.7431 12 18.2063 12.1932 18.5459 12.5364L22.2743 16.3044C22.4435 16.4753 22.5771 16.6781 22.6673 16.901C22.7575 17.124 22.8026 17.3626 22.7998 17.6031C22.797 17.8436 22.7464 18.0811 22.6511 18.3019C22.5557 18.5227 22.4175 18.7223 22.2443 18.8892L18.7079 22.2936C18.3641 22.6249 17.9033 22.8069 17.4258 22.7999C16.9484 22.793 16.4931 22.5976 16.1591 22.2564L12.5183 18.5388V18.54ZM14.3999 15.3C14.3999 15.5387 14.4947 15.7676 14.6635 15.9364C14.8323 16.1052 15.0612 16.2 15.2999 16.2C15.5386 16.2 15.7675 16.1052 15.9363 15.9364C16.1051 15.7676 16.1999 15.5387 16.1999 15.3C16.1999 15.0613 16.1051 14.8324 15.9363 14.6636C15.7675 14.4948 15.5386 14.4 15.2999 14.4C15.0612 14.4 14.8323 14.4948 14.6635 14.6636C14.4947 14.8324 14.3999 15.0613 14.3999 15.3Z" fill="currentColor"/>
</svg>
