<svg width="24" height="24" viewBox="0 0 24 24" fill="none" xmlns="http://www.w3.org/2000/svg">
<path fill-rule="evenodd" clip-rule="evenodd" d="M4.125 3.75H19.875C19.9745 3.75 20.0698 3.78951 20.1402 3.85984C20.2105 3.93016 20.25 4.02554 20.25 4.125V19.875C20.25 19.9745 20.2105 20.0698 20.1402 20.1402C20.0698 20.2105 19.9745 20.25 19.875 20.25H4.125C4.02554 20.25 3.93016 20.2105 3.85984 20.1402C3.78951 20.0698 3.75 19.9745 3.75 19.875V4.125C3.75 4.02554 3.78951 3.93016 3.85984 3.85984C3.93016 3.78951 4.02554 3.75 4.125 3.75ZM19.875 1.5H4.125C3.42881 1.5 2.76113 1.77656 2.26884 2.26884C1.77656 2.76113 1.5 3.42881 1.5 4.125V19.875C1.5 21.324 2.676 22.5 4.125 22.5H19.875C20.5712 22.5 21.2389 22.2234 21.7312 21.7312C22.2234 21.2389 22.5 20.5712 22.5 19.875V4.125C22.5 3.42881 22.2234 2.76113 21.7312 2.26884C21.2389 1.77656 20.5712 1.5 19.875 1.5ZM16.92 8.67C17.1187 8.45674 17.2269 8.17467 17.2218 7.88322C17.2166 7.59176 17.0986 7.31369 16.8924 7.10757C16.6863 6.90145 16.4082 6.78338 16.1168 6.77824C15.8253 6.7731 15.5433 6.88128 15.33 7.08L7.08 15.33C6.96947 15.433 6.88082 15.5572 6.81933 15.6952C6.75784 15.8332 6.72478 15.9822 6.72211 16.1332C6.71945 16.2843 6.74723 16.4343 6.80382 16.5744C6.8604 16.7145 6.94461 16.8417 7.05144 16.9486C7.15827 17.0554 7.28552 17.1396 7.4256 17.1962C7.56569 17.2528 7.71573 17.2806 7.86678 17.2779C8.01784 17.2752 8.16681 17.2422 8.30481 17.1807C8.44281 17.1192 8.56701 17.0305 8.67 16.92L16.92 8.67Z" fill="currentColor"/>
</svg>
