<svg width="20" height="22" viewBox="0 0 20 22" fill="none" xmlns="http://www.w3.org/2000/svg">
<path d="M10.0116 8.15469C9.31083 8.15469 8.65458 8.42657 8.1577 8.92344C7.66317 9.42032 7.38895 10.0766 7.38895 10.7773C7.38895 11.4781 7.66317 12.1344 8.1577 12.6313C8.65458 13.1258 9.31083 13.4 10.0116 13.4C10.7124 13.4 11.3686 13.1258 11.8655 12.6313C12.36 12.1344 12.6343 11.4781 12.6343 10.7773C12.6343 10.0766 12.36 9.42032 11.8655 8.92344C11.6228 8.67889 11.334 8.48499 11.0157 8.35302C10.6974 8.22105 10.3561 8.15364 10.0116 8.15469ZM19.6749 13.6742L18.1421 12.3641C18.2147 11.9188 18.2522 11.4641 18.2522 11.0117C18.2522 10.5594 18.2147 10.1023 18.1421 9.65938L19.6749 8.34922C19.7907 8.2501 19.8736 8.11807 19.9125 7.9707C19.9514 7.82333 19.9446 7.66761 19.8929 7.52422L19.8718 7.46329C19.4499 6.28365 18.8178 5.19021 18.0061 4.23594L17.964 4.18672C17.8654 4.07083 17.734 3.98752 17.5872 3.94777C17.4403 3.90802 17.2849 3.91371 17.1413 3.96407L15.2382 4.64141C14.535 4.06485 13.7522 3.61016 12.9038 3.29375L12.5358 1.30391C12.5081 1.15401 12.4353 1.0161 12.3273 0.908514C12.2193 0.800925 12.0811 0.728745 11.9311 0.701566L11.8679 0.689847C10.6491 0.469534 9.36473 0.469534 8.14598 0.689847L8.0827 0.701566C7.93269 0.728745 7.79451 0.800925 7.6865 0.908514C7.57849 1.0161 7.50578 1.15401 7.47801 1.30391L7.1077 3.30313C6.2673 3.62206 5.48441 4.07564 4.78973 4.6461L2.87255 3.96407C2.72903 3.91331 2.57346 3.90742 2.42652 3.94719C2.27957 3.98696 2.14821 4.07051 2.04989 4.18672L2.0077 4.23594C1.19745 5.19123 0.565525 6.2844 0.142077 7.46329L0.120983 7.52422C0.0155143 7.81719 0.102233 8.14532 0.338952 8.34922L1.89051 9.67344C1.81786 10.1141 1.7827 10.5641 1.7827 11.0094C1.7827 11.4594 1.81786 11.9094 1.89051 12.3453L0.343639 13.6695C0.227848 13.7687 0.144975 13.9007 0.106039 14.0481C0.0671037 14.1954 0.0739509 14.3512 0.12567 14.4945L0.146764 14.5555C0.570983 15.7344 1.19676 16.8242 2.01239 17.7828L2.05458 17.832C2.15314 17.9479 2.28451 18.0312 2.43136 18.071C2.57822 18.1107 2.73367 18.1051 2.87723 18.0547L4.79442 17.3727C5.49286 17.9469 6.27098 18.4016 7.11239 18.7156L7.4827 20.7148C7.51046 20.8647 7.58318 21.0027 7.69119 21.1102C7.79919 21.2178 7.93738 21.29 8.08739 21.3172L8.15067 21.3289C9.38141 21.5504 10.6418 21.5504 11.8725 21.3289L11.9358 21.3172C12.0858 21.29 12.224 21.2178 12.332 21.1102C12.44 21.0027 12.5128 20.8647 12.5405 20.7148L12.9085 18.725C13.7569 18.4063 14.5397 17.9539 15.2429 17.3773L17.146 18.0547C17.2895 18.1055 17.4451 18.1113 17.592 18.0716C17.739 18.0318 17.8703 17.9483 17.9686 17.832L18.0108 17.7828C18.8265 16.8195 19.4522 15.7344 19.8765 14.5555L19.8975 14.4945C19.9983 14.2039 19.9116 13.8781 19.6749 13.6742ZM10.0116 14.8977C7.73583 14.8977 5.8913 13.0531 5.8913 10.7773C5.8913 8.50157 7.73583 6.65704 10.0116 6.65704C12.2874 6.65704 14.1319 8.50157 14.1319 10.7773C14.1319 13.0531 12.2874 14.8977 10.0116 14.8977Z" fill="currentColor"/>
</svg>
