<svg width="24" height="24" viewBox="0 0 24 24" fill="none" xmlns="http://www.w3.org/2000/svg">
<g clip-path="url(#clip0_1506_1837)">
<path d="M15.7733 6.66667H10V5.33333H15.1867C14.9982 4.66242 14.9537 3.95926 15.0559 3.26993C15.1582 2.5806 15.4049 1.92066 15.78 1.33333H5.33333C4.97971 1.33333 4.64057 1.47381 4.39052 1.72386C4.14048 1.9739 4 2.31304 4 2.66667V21.3333C4 21.687 4.14048 22.0261 4.39052 22.2761C4.64057 22.5262 4.97971 22.6667 5.33333 22.6667H18.6667C19.0203 22.6667 19.3594 22.5262 19.6095 22.2761C19.8595 22.0261 20 21.687 20 21.3333V9C19.1557 9.00014 18.3251 8.78617 17.5859 8.37811C16.8467 7.97005 16.2231 7.38122 15.7733 6.66667ZM8.66667 17.3333H7.33333V16H8.66667V17.3333ZM8.66667 14.6667H7.33333V13.3333H8.66667V14.6667ZM8.66667 12H7.33333V10.6667H8.66667V12ZM8.66667 9.33333H7.33333V8H8.66667V9.33333ZM8.66667 6.66667H7.33333V5.33333H8.66667V6.66667ZM16.6667 17.3333H10V16H16.6667V17.3333ZM16.6667 14.6667H10V13.3333H16.6667V14.6667ZM16.6667 12H10V10.6667H16.6667V12ZM16.6667 9.33333H10V8H16.6667V9.33333Z" fill="currentColor"/>
<path d="M23.5379 2.37303C23.4339 2.10435 23.2841 1.86086 23.0966 1.65622C22.909 1.45096 22.6879 1.28785 22.4451 1.17575C22.1935 1.05904 21.9235 0.999306 21.651 1.00001C21.2686 1.00001 20.8956 1.11688 20.5714 1.33764C20.4939 1.39044 20.4202 1.44845 20.3504 1.51164C20.2806 1.44845 20.2069 1.39044 20.1294 1.33764C19.8052 1.11688 19.4321 1.00001 19.0498 1.00001C18.7745 1.00001 18.5077 1.05887 18.2556 1.17575C18.0121 1.28829 17.7926 1.45018 17.6042 1.65622C17.4165 1.86063 17.2665 2.10417 17.1629 2.37303C17.0551 2.65266 17 2.9496 17 3.2552C17 3.54348 17.0527 3.84388 17.1574 4.14948C17.2451 4.40487 17.3707 4.66978 17.5313 4.93728C17.7856 5.36062 18.1354 5.80213 18.5697 6.24971C19.2894 6.99163 20.0022 7.50413 20.0324 7.52491L20.2162 7.6565C20.2976 7.7145 20.4023 7.7145 20.4838 7.6565L20.6676 7.52491C20.6978 7.50327 21.4098 6.99163 22.1303 6.24971C22.5646 5.80213 22.9144 5.36062 23.1687 4.93728C23.3293 4.66978 23.4557 4.40487 23.5426 4.14948C23.6473 3.84388 23.7 3.54348 23.7 3.2552C23.7008 2.9496 23.6457 2.65266 23.5379 2.37303Z" fill="currentColor"/>
</g>
<defs>
<clipPath id="clip0_1506_1837">
<rect width="24" height="24" fill="white"/>
</clipPath>
</defs>
</svg>
