<svg width="24" height="24" viewBox="0 0 24 24" fill="none" xmlns="http://www.w3.org/2000/svg">
<path d="M19.5 10.575V1.5H15.75V3H18V4.5H15.75V6H18V10.575C16.725 10.875 15.75 12.075 15.75 13.5C15.75 15.15 17.1 16.5 18.75 16.5C20.4 16.5 21.75 15.15 21.75 13.5C21.75 12.075 20.775 10.95 19.5 10.575ZM18.75 15C17.925 15 17.25 14.325 17.25 13.5C17.25 12.675 17.925 12 18.75 12C19.575 12 20.25 12.675 20.25 13.5C20.25 14.325 19.575 15 18.75 15Z" fill="currentColor"/>
<path d="M11.25 23.25L7.125 20.85C4.575 19.35 3 16.65 3 13.725V3C3 2.175 3.675 1.5 4.5 1.5H13.5V4H5V13.725C5 16.125 5.775 17.3 7.875 18.5L11.25 20.525L14.625 18.5C15.45 17.975 16.2 17.825 16.725 17L17.925 18.45C17.25 19.425 16.35 20.25 15.3 20.85L11.25 23.25Z" fill="currentColor"/>
</svg>
