<svg width="24" height="24" viewBox="0 0 24 24" fill="none" xmlns="http://www.w3.org/2000/svg">
<g clip-path="url(#clip0_1506_1863)">
<path d="M20.9534 10.6667H6.66675V12.6667H20.9534C21.1302 12.6667 21.2998 12.5613 21.4248 12.3738C21.5498 12.1862 21.6201 11.9319 21.6201 11.6667C21.6201 11.4015 21.5498 11.1471 21.4248 10.9596C21.2998 10.772 21.1302 10.6667 20.9534 10.6667Z" fill="currentColor"/>
<path d="M20.9534 16H6.66675V18H20.9534C21.1302 18 21.2998 17.8946 21.4248 17.7071C21.5498 17.5196 21.6201 17.2652 21.6201 17C21.6201 16.7348 21.5498 16.4804 21.4248 16.2929C21.2998 16.1054 21.1302 16 20.9534 16Z" fill="currentColor"/>
<path d="M10.3 7.33333H20.9667C21.1435 7.33333 21.3131 7.22797 21.4381 7.04043C21.5631 6.8529 21.6334 6.59854 21.6334 6.33333C21.6334 6.06811 21.5631 5.81376 21.4381 5.62622C21.3131 5.43869 21.1435 5.33333 20.9667 5.33333H11.6334L10.3 7.33333Z" fill="currentColor"/>
<path d="M11.6667 2.28C11.5992 2.21167 11.5187 2.15742 11.43 2.1204C11.3413 2.08338 11.2462 2.06432 11.1501 2.06432C11.054 2.06432 10.9588 2.08338 10.8701 2.1204C10.7814 2.15742 10.701 2.21167 10.6334 2.28L5.26007 7.65334L3.00673 5.22667C2.87412 5.08434 2.69041 5.00051 2.49599 4.99364C2.30158 4.98676 2.1124 5.05739 1.97007 5.19C1.82773 5.32261 1.74391 5.50633 1.73703 5.70074C1.73015 5.89516 1.80079 6.08434 1.9334 6.22667L5.22673 9.76L11.6667 3.33334C11.7373 3.26497 11.7934 3.18312 11.8317 3.09264C11.87 3.00217 11.8898 2.90492 11.8898 2.80667C11.8898 2.70842 11.87 2.61117 11.8317 2.5207C11.7934 2.43022 11.7373 2.34837 11.6667 2.28Z" fill="currentColor"/>
</g>
<defs>
<clipPath id="clip0_1506_1863">
<rect width="24" height="24" fill="white"/>
</clipPath>
</defs>
</svg>
