<svg width="21" height="21" viewBox="0 0 21 21" fill="none" xmlns="http://www.w3.org/2000/svg">
<circle cx="11" cy="11" r="9" fill="#3C3A3A"/>
<path d="M12.11 14.625V16.3828H10.0475V14.625H12.11ZM12.1022 13.4766H10.0397C10.0397 13.138 10.0579 12.8594 10.0944 12.6406C10.136 12.4219 10.2168 12.2161 10.3365 12.0234C10.4615 11.8255 10.6048 11.651 10.7662 11.5C10.9277 11.349 11.1647 11.1562 11.4772 10.9219C11.8626 10.5938 12.1412 10.2839 12.3131 9.99219C12.4902 9.70052 12.5787 9.35156 12.5787 8.94531C12.5787 8.53906 12.4641 8.21615 12.235 7.97656C12.0058 7.73177 11.6933 7.60938 11.2975 7.60938C10.9069 7.60938 10.5944 7.71615 10.36 7.92969C10.1308 8.13802 10.0136 8.4375 10.0084 8.82812H8.01623L8.00061 8.78906C7.98498 7.89844 8.27144 7.21094 8.85998 6.72656C9.45373 6.24219 10.2662 6 11.2975 6C12.3287 6 13.1412 6.26562 13.735 6.79688C14.3339 7.32292 14.6334 8.04948 14.6334 8.97656C14.6334 9.54948 14.4694 10.0833 14.1412 10.5781C13.8131 11.0729 13.3626 11.5104 12.7897 11.8906C12.5136 12.1042 12.3287 12.3177 12.235 12.5312C12.1464 12.7448 12.1022 13.0599 12.1022 13.4766Z" fill="#EEEEEE"/>
</svg>
