<svg width="25" height="24" viewBox="0 0 25 24" fill="none" xmlns="http://www.w3.org/2000/svg">
<g clip-path="url(#clip0_600_537)">
<path fill-rule="evenodd" clip-rule="evenodd" d="M24.5 12C24.5 18.627 19.127 24 12.5 24C5.873 24 0.5 18.627 0.5 12C0.5 5.373 5.873 0 12.5 0C19.127 0 24.5 5.373 24.5 12ZM20.188 11.058C20.382 11.335 20.492 11.662 20.504 12C20.5092 12.3307 20.4207 12.6561 20.2487 12.9385C20.0767 13.221 19.8282 13.4489 19.532 13.596C19.546 13.772 19.546 13.948 19.532 14.124C19.532 16.812 16.4 18.996 12.536 18.996C8.672 18.996 5.54 16.812 5.54 14.124C5.52649 13.9483 5.52649 13.7717 5.54 13.596C5.31117 13.4889 5.10825 13.3335 4.94519 13.1405C4.78213 12.9475 4.66279 12.7215 4.59537 12.478C4.52796 12.2345 4.51408 11.9793 4.55467 11.7299C4.59526 11.4805 4.68937 11.2429 4.83053 11.0333C4.97169 10.8238 5.15656 10.6473 5.37241 10.516C5.58826 10.3847 5.82999 10.3016 6.08098 10.2726C6.33197 10.2436 6.58626 10.2693 6.82638 10.3479C7.0665 10.4265 7.28676 10.5562 7.472 10.728C8.85473 9.79023 10.4815 9.27718 12.152 9.252L13.04 5.088C13.05 5.03979 13.0694 4.99405 13.0972 4.95341C13.125 4.91277 13.1605 4.87805 13.2018 4.85127C13.2431 4.82448 13.2894 4.80615 13.3378 4.79735C13.3862 4.78855 13.4359 4.78945 13.484 4.8L16.424 5.388C16.5676 5.14132 16.7944 4.9539 17.0637 4.85937C17.333 4.76484 17.6272 4.7694 17.8934 4.87222C18.1597 4.97505 18.3806 5.1694 18.5164 5.42041C18.6523 5.67141 18.6943 5.96262 18.6348 6.24177C18.5753 6.52092 18.4182 6.76972 18.1918 6.94352C17.9654 7.11732 17.6845 7.20473 17.3995 7.19006C17.1144 7.1754 16.8439 7.05962 16.6366 6.8635C16.4292 6.66739 16.2985 6.40378 16.268 6.12L13.7 5.58L12.92 9.324C14.5702 9.3594 16.1749 9.87206 17.54 10.8C17.7222 10.6248 17.9402 10.4911 18.179 10.4082C18.4178 10.3252 18.6718 10.295 18.9234 10.3195C19.175 10.344 19.4183 10.4227 19.6366 10.5502C19.8549 10.6777 20.043 10.8509 20.188 11.058ZM8.706 12.533C8.61841 12.6641 8.55749 12.8111 8.52672 12.9657C8.49595 13.1203 8.49593 13.2794 8.52667 13.4341C8.58874 13.7463 8.77231 14.0211 9.037 14.198C9.30169 14.3749 9.6258 14.4394 9.93805 14.3773C10.0927 14.3466 10.2397 14.2857 10.3708 14.1981C10.5019 14.1106 10.6144 13.9981 10.702 13.867C10.8789 13.6023 10.9434 13.2782 10.8813 12.9659C10.8193 12.6537 10.6357 12.3789 10.371 12.202C10.1063 12.0251 9.7822 11.9606 9.46995 12.0227C9.1577 12.0847 8.8829 12.2683 8.706 12.533ZM12.512 17.424C13.577 17.468 14.625 17.19 15.476 16.548C15.5397 16.4859 15.576 16.4011 15.5772 16.3122C15.5783 16.2234 15.5441 16.1377 15.482 16.074C15.4513 16.0425 15.4146 16.0173 15.3742 16C15.3337 15.9826 15.2903 15.9734 15.2462 15.9728C15.1574 15.9717 15.0717 16.0059 15.008 16.068C14.2797 16.5904 13.395 16.8487 12.5 16.8C11.6061 16.8399 10.7255 16.5732 10.004 16.044C9.94182 15.993 9.86289 15.9669 9.78256 15.9708C9.70222 15.9748 9.62622 16.0085 9.56935 16.0653C9.51247 16.1222 9.47879 16.1982 9.47484 16.2786C9.47089 16.3589 9.49697 16.4378 9.548 16.5C10.3994 17.1416 11.4469 17.4681 12.512 17.424ZM14.593 14.246C14.791 14.378 15.011 14.496 15.248 14.496C15.4108 14.4979 15.5722 14.4666 15.7225 14.4041C15.8728 14.3416 16.0087 14.2492 16.1221 14.1324C16.2355 14.0156 16.324 13.877 16.3821 13.725C16.4401 13.5729 16.4667 13.4106 16.46 13.248C16.4599 13.0407 16.4062 12.837 16.3039 12.6567C16.2017 12.4763 16.0545 12.3256 15.8767 12.219C15.6989 12.1125 15.4965 12.0539 15.2893 12.0488C15.0821 12.0437 14.8771 12.0924 14.6943 12.1902C14.5115 12.2879 14.3571 12.4313 14.2462 12.6064C14.1353 12.7815 14.0717 12.9824 14.0615 13.1894C14.0513 13.3964 14.0949 13.6026 14.188 13.7877C14.2812 13.9729 14.4207 14.1308 14.593 14.246Z" fill="white"/>
</g>
<defs>
<clipPath id="clip0_600_537">
<rect width="24" height="24" fill="white" transform="translate(0.5)"/>
</clipPath>
</defs>
</svg>
