<svg width="25" height="24" viewBox="0 0 25 24" fill="none" xmlns="http://www.w3.org/2000/svg">
<g clip-path="url(#clip0_600_529)">
<path fill-rule="evenodd" clip-rule="evenodd" d="M24.5 12C24.5 18.627 19.127 24 12.5 24C5.873 24 0.5 18.627 0.5 12C0.5 5.373 5.873 0 12.5 0C19.127 0 24.5 5.373 24.5 12ZM12.93 8.859C11.763 9.344 9.43 10.349 5.932 11.873C5.364 12.099 5.066 12.32 5.039 12.536C4.993 12.902 5.451 13.046 6.073 13.241C6.158 13.268 6.246 13.295 6.336 13.325C6.949 13.524 7.773 13.757 8.201 13.766C8.59 13.774 9.024 13.614 9.503 13.286C12.771 11.079 14.458 9.964 14.564 9.94C14.639 9.923 14.743 9.901 14.813 9.964C14.883 10.026 14.876 10.144 14.869 10.176C14.823 10.369 13.029 12.038 12.099 12.902C11.809 13.171 11.604 13.362 11.562 13.406C11.468 13.503 11.372 13.596 11.28 13.685C10.71 14.233 10.284 14.645 11.304 15.317C11.794 15.64 12.186 15.907 12.577 16.173C13.004 16.464 13.43 16.754 13.982 17.116C14.122 17.208 14.256 17.303 14.387 17.396C14.884 17.751 15.331 18.069 15.883 18.019C16.203 17.989 16.535 17.688 16.703 16.789C17.1 14.663 17.882 10.059 18.063 8.161C18.074 8.00341 18.0673 7.84509 18.043 7.689C18.0285 7.56293 17.9671 7.44693 17.871 7.364C17.728 7.247 17.506 7.222 17.406 7.224C16.955 7.232 16.263 7.473 12.93 8.859Z" fill="white"/>
</g>
<defs>
<clipPath id="clip0_600_529">
<rect width="24" height="24" fill="white" transform="translate(0.5)"/>
</clipPath>
</defs>
</svg>
